<mxfile host="app.diagrams.net" agent="Mozilla/5.0 (Windows NT 10.0; Win64; x64; rv:142.0) Gecko/20100101 Firefox/142.0" version="28.2.0">
  <diagram id="C5RBs43oDa-KdzZeNtuy" name="Page-1">
    <mxGraphModel dx="1375" dy="1920" grid="1" gridSize="10" guides="1" tooltips="1" connect="1" arrows="1" fold="1" page="1" pageScale="1" pageWidth="827" pageHeight="1169" math="0" shadow="0">
      <root>
        <mxCell id="WIyWlLk6GJQsqaUBKTNV-0" />
        <mxCell id="WIyWlLk6GJQsqaUBKTNV-1" parent="WIyWlLk6GJQsqaUBKTNV-0" />
        <mxCell id="6EuXl1x95rgEigz8fd3--6" value="" style="rounded=0;html=1;jettySize=auto;orthogonalLoop=1;fontSize=11;endArrow=block;endFill=0;endSize=8;strokeWidth=1;shadow=0;labelBackgroundColor=none;edgeStyle=orthogonalEdgeStyle;" parent="WIyWlLk6GJQsqaUBKTNV-1" source="6EuXl1x95rgEigz8fd3--7" target="6EuXl1x95rgEigz8fd3--13" edge="1">
          <mxGeometry relative="1" as="geometry">
            <mxPoint x="270" y="-750" as="targetPoint" />
          </mxGeometry>
        </mxCell>
        <mxCell id="6EuXl1x95rgEigz8fd3--7" value="LED ein" style="rounded=1;whiteSpace=wrap;html=1;fontSize=12;glass=0;strokeWidth=1;shadow=0;" parent="WIyWlLk6GJQsqaUBKTNV-1" vertex="1">
          <mxGeometry x="210" y="-840" width="120" height="40" as="geometry" />
        </mxCell>
        <mxCell id="6EuXl1x95rgEigz8fd3--8" style="edgeStyle=orthogonalEdgeStyle;rounded=0;orthogonalLoop=1;jettySize=auto;html=1;exitX=0.5;exitY=1;exitDx=0;exitDy=0;entryX=0.5;entryY=0;entryDx=0;entryDy=0;" parent="WIyWlLk6GJQsqaUBKTNV-1" source="6EuXl1x95rgEigz8fd3--9" target="6EuXl1x95rgEigz8fd3--15" edge="1">
          <mxGeometry relative="1" as="geometry">
            <mxPoint x="270" y="-530" as="targetPoint" />
          </mxGeometry>
        </mxCell>
        <mxCell id="6EuXl1x95rgEigz8fd3--9" value="LED aus" style="rounded=1;whiteSpace=wrap;html=1;fontSize=12;glass=0;strokeWidth=1;shadow=0;" parent="WIyWlLk6GJQsqaUBKTNV-1" vertex="1">
          <mxGeometry x="210" y="-650" width="120" height="40" as="geometry" />
        </mxCell>
        <mxCell id="6EuXl1x95rgEigz8fd3--10" style="edgeStyle=orthogonalEdgeStyle;rounded=0;orthogonalLoop=1;jettySize=auto;html=1;exitX=0.5;exitY=1;exitDx=0;exitDy=0;entryX=0.5;entryY=0;entryDx=0;entryDy=0;" parent="WIyWlLk6GJQsqaUBKTNV-1" source="6EuXl1x95rgEigz8fd3--17" target="6EuXl1x95rgEigz8fd3--19" edge="1">
          <mxGeometry relative="1" as="geometry" />
        </mxCell>
        <mxCell id="6EuXl1x95rgEigz8fd3--11" value="&lt;div&gt;Start&lt;/div&gt;" style="ellipse;whiteSpace=wrap;html=1;" parent="WIyWlLk6GJQsqaUBKTNV-1" vertex="1">
          <mxGeometry x="245" y="-1100" width="50" height="50" as="geometry" />
        </mxCell>
        <mxCell id="6EuXl1x95rgEigz8fd3--12" style="edgeStyle=orthogonalEdgeStyle;rounded=0;orthogonalLoop=1;jettySize=auto;html=1;exitX=0.5;exitY=1;exitDx=0;exitDy=0;entryX=0.5;entryY=0;entryDx=0;entryDy=0;" parent="WIyWlLk6GJQsqaUBKTNV-1" source="6EuXl1x95rgEigz8fd3--13" target="6EuXl1x95rgEigz8fd3--9" edge="1">
          <mxGeometry relative="1" as="geometry" />
        </mxCell>
        <mxCell id="6EuXl1x95rgEigz8fd3--13" value="Warten für halbe&amp;nbsp;Blinkperiode" style="rounded=1;whiteSpace=wrap;html=1;fontSize=12;glass=0;strokeWidth=1;shadow=0;" parent="WIyWlLk6GJQsqaUBKTNV-1" vertex="1">
          <mxGeometry x="210" y="-750" width="120" height="40" as="geometry" />
        </mxCell>
        <mxCell id="6EuXl1x95rgEigz8fd3--14" style="edgeStyle=orthogonalEdgeStyle;rounded=0;orthogonalLoop=1;jettySize=auto;html=1;exitX=0.5;exitY=1;exitDx=0;exitDy=0;entryX=0;entryY=0.5;entryDx=0;entryDy=0;" parent="WIyWlLk6GJQsqaUBKTNV-1" source="6EuXl1x95rgEigz8fd3--15" target="6EuXl1x95rgEigz8fd3--17" edge="1">
          <mxGeometry relative="1" as="geometry">
            <Array as="points">
              <mxPoint x="270" y="-490" />
              <mxPoint x="140" y="-490" />
              <mxPoint x="140" y="-990" />
            </Array>
          </mxGeometry>
        </mxCell>
        <mxCell id="6EuXl1x95rgEigz8fd3--15" value="Warten für halbe&amp;nbsp;Blinkperiode" style="rounded=1;whiteSpace=wrap;html=1;fontSize=12;glass=0;strokeWidth=1;shadow=0;" parent="WIyWlLk6GJQsqaUBKTNV-1" vertex="1">
          <mxGeometry x="210" y="-560" width="120" height="40" as="geometry" />
        </mxCell>
        <mxCell id="6EuXl1x95rgEigz8fd3--16" value="" style="edgeStyle=orthogonalEdgeStyle;rounded=0;orthogonalLoop=1;jettySize=auto;html=1;exitX=0.5;exitY=1;exitDx=0;exitDy=0;entryX=0.5;entryY=0;entryDx=0;entryDy=0;" parent="WIyWlLk6GJQsqaUBKTNV-1" source="6EuXl1x95rgEigz8fd3--11" target="6EuXl1x95rgEigz8fd3--17" edge="1">
          <mxGeometry relative="1" as="geometry">
            <mxPoint x="270" y="-1050" as="sourcePoint" />
            <mxPoint x="270" y="-790" as="targetPoint" />
          </mxGeometry>
        </mxCell>
        <mxCell id="6EuXl1x95rgEigz8fd3--17" value="Potiwert einlesen" style="rounded=1;whiteSpace=wrap;html=1;fontSize=12;glass=0;strokeWidth=1;shadow=0;" parent="WIyWlLk6GJQsqaUBKTNV-1" vertex="1">
          <mxGeometry x="210" y="-1010" width="120" height="40" as="geometry" />
        </mxCell>
        <mxCell id="6EuXl1x95rgEigz8fd3--18" style="edgeStyle=orthogonalEdgeStyle;rounded=0;orthogonalLoop=1;jettySize=auto;html=1;exitX=0.5;exitY=1;exitDx=0;exitDy=0;entryX=0.5;entryY=0;entryDx=0;entryDy=0;" parent="WIyWlLk6GJQsqaUBKTNV-1" source="6EuXl1x95rgEigz8fd3--19" target="6EuXl1x95rgEigz8fd3--7" edge="1">
          <mxGeometry relative="1" as="geometry" />
        </mxCell>
        <mxCell id="6EuXl1x95rgEigz8fd3--19" value="Potiwert auf Zeit (50ms - 1s) mappen = Blinkperiode" style="rounded=1;whiteSpace=wrap;html=1;fontSize=12;glass=0;strokeWidth=1;shadow=0;" parent="WIyWlLk6GJQsqaUBKTNV-1" vertex="1">
          <mxGeometry x="180" y="-930" width="180" height="40" as="geometry" />
        </mxCell>
      </root>
    </mxGraphModel>
  </diagram>
</mxfile>
